<?xml version="1.0" encoding="UTF-8" standalone="no"?><!DOCTYPE svg PUBLIC "-//W3C//DTD SVG 1.1//EN" "http://www.w3.org/Graphics/SVG/1.1/DTD/svg11.dtd"><svg width="100%" height="100%" viewBox="0 0 902 187" version="1.1" xmlns="http://www.w3.org/2000/svg" xmlns:xlink="http://www.w3.org/1999/xlink" xml:space="preserve" xmlns:serif="http://www.serif.com/" style="fill-rule:evenodd;clip-rule:evenodd;stroke-linejoin:round;stroke-miterlimit:2;"><g><path d="M219.134,132.935c0,7.443 -1.406,14.388 -4.219,20.836c-2.813,6.448 -6.621,12.073 -11.424,16.876c-4.803,4.803 -10.45,8.59 -16.941,11.359c-6.491,2.769 -13.371,4.154 -20.641,4.154l-126.054,0l0,-26.613l126.054,0c3.635,0 7.075,-0.692 10.321,-2.077c3.245,-1.385 6.08,-3.289 8.503,-5.712c2.423,-2.423 4.327,-5.258 5.712,-8.503c1.385,-3.245 2.077,-6.686 2.077,-10.321c0,-3.635 -0.692,-7.053 -2.077,-10.256c-1.385,-3.202 -3.289,-6.015 -5.712,-8.438c-2.423,-2.423 -5.258,-4.327 -8.503,-5.712c-3.245,-1.385 -6.686,-2.077 -10.321,-2.077l-126.054,0l0,-26.613l99.441,0c3.635,0 7.075,-0.692 10.321,-2.077c3.245,-1.385 6.08,-3.289 8.503,-5.712c2.423,-2.423 4.327,-5.258 5.712,-8.503c1.385,-3.245 2.077,-6.686 2.077,-10.321c0,-3.635 -0.692,-7.075 -2.077,-10.321c-1.385,-3.245 -3.289,-6.08 -5.712,-8.503c-2.423,-2.423 -5.258,-4.327 -8.503,-5.712c-3.245,-1.385 -6.686,-2.077 -10.321,-2.077l-112.683,0l0,159.548l-26.613,0l0,-186.16l139.296,0c7.27,0 14.15,1.406 20.641,4.219c6.491,2.813 12.138,6.621 16.941,11.424c4.803,4.803 8.611,10.45 11.424,16.941c2.813,6.491 4.219,13.371 4.219,20.641c0,5.625 -0.822,10.926 -2.467,15.903c-1.644,4.976 -3.851,9.585 -6.621,13.826c5.193,1.817 9.974,4.371 14.345,7.659c4.371,3.289 8.135,7.097 11.294,11.424c3.159,4.327 5.625,9.109 7.4,14.345c1.774,5.236 2.661,10.753 2.661,16.552Z" style="fill-rule:nonzero;"/><path d="M680.555,132.935c0,7.443 -1.385,14.388 -4.154,20.836c-2.769,6.448 -6.556,12.073 -11.359,16.876c-4.803,4.803 -10.429,8.59 -16.876,11.359c-6.448,2.769 -13.35,4.154 -20.706,4.154l-161.754,0l0,-26.613l161.754,0c3.721,0 7.183,-0.692 10.386,-2.077c3.202,-1.385 5.993,-3.289 8.373,-5.712c2.38,-2.423 4.262,-5.258 5.647,-8.503c1.385,-3.245 2.077,-6.686 2.077,-10.321c0,-3.635 -0.692,-7.053 -2.077,-10.256c-1.385,-3.202 -3.267,-6.015 -5.647,-8.438c-2.38,-2.423 -5.171,-4.327 -8.373,-5.712c-3.202,-1.385 -6.664,-2.077 -10.386,-2.077l-108.529,0c-7.27,0 -14.15,-1.385 -20.641,-4.154c-6.491,-2.769 -12.138,-6.556 -16.941,-11.359c-4.803,-4.803 -8.611,-10.45 -11.424,-16.941c-2.813,-6.491 -4.219,-13.415 -4.219,-20.771c0,-7.27 1.406,-14.15 4.219,-20.641c2.813,-6.491 6.621,-12.138 11.424,-16.941c4.803,-4.803 10.45,-8.611 16.941,-11.424c6.491,-2.813 13.371,-4.219 20.641,-4.219l148.383,0l0,26.613l-148.383,0c-3.635,0 -7.075,0.692 -10.321,2.077c-3.245,1.385 -6.08,3.289 -8.503,5.712c-2.423,2.423 -4.327,5.258 -5.712,8.503c-1.385,3.245 -2.077,6.686 -2.077,10.321c0,3.635 0.692,7.075 2.077,10.321c1.385,3.245 3.289,6.08 5.712,8.503c2.423,2.423 5.258,4.327 8.503,5.712c3.245,1.385 6.686,2.077 10.321,2.077l108.529,0c7.356,0 14.258,1.406 20.706,4.219c6.448,2.813 12.073,6.621 16.876,11.424c4.803,4.803 8.59,10.429 11.359,16.876c2.769,6.448 4.154,13.306 4.154,20.576Z" style="fill-rule:nonzero;"/><path d="M901.529,132.935c0,7.443 -1.385,14.388 -4.154,20.836c-2.769,6.448 -6.556,12.073 -11.359,16.876c-4.803,4.803 -10.429,8.59 -16.876,11.359c-6.448,2.769 -13.35,4.154 -20.706,4.154l-161.754,0l0,-26.613l161.754,0c3.721,0 7.183,-0.692 10.386,-2.077c3.202,-1.385 5.993,-3.289 8.373,-5.712c2.38,-2.423 4.262,-5.258 5.647,-8.503c1.385,-3.245 2.077,-6.686 2.077,-10.321c0,-3.635 -0.692,-7.053 -2.077,-10.256c-1.385,-3.202 -3.267,-6.015 -5.647,-8.438c-2.38,-2.423 -5.171,-4.327 -8.373,-5.712c-3.202,-1.385 -6.664,-2.077 -10.386,-2.077l-108.529,0c-7.27,0 -14.15,-1.385 -20.641,-4.154c-6.491,-2.769 -12.138,-6.556 -16.941,-11.359c-4.803,-4.803 -8.611,-10.45 -11.424,-16.941c-2.813,-6.491 -4.219,-13.415 -4.219,-20.771c0,-7.27 1.406,-14.15 4.219,-20.641c2.813,-6.491 6.621,-12.138 11.424,-16.941c4.803,-4.803 10.45,-8.611 16.941,-11.424c6.491,-2.813 13.371,-4.219 20.641,-4.219l148.383,0l0,26.613l-148.383,0c-3.635,0 -7.075,0.692 -10.321,2.077c-3.245,1.385 -6.08,3.289 -8.503,5.712c-2.423,2.423 -4.327,5.258 -5.712,8.503c-1.385,3.245 -2.077,6.686 -2.077,10.321c0,3.635 0.692,7.075 2.077,10.321c1.385,3.245 3.289,6.08 5.712,8.503c2.423,2.423 5.258,4.327 8.503,5.712c3.245,1.385 6.686,2.077 10.321,2.077l108.529,0c7.356,0 14.258,1.406 20.706,4.219c6.448,2.813 12.073,6.621 16.876,11.424c4.803,4.803 8.59,10.429 11.359,16.876c2.769,6.448 4.154,13.306 4.154,20.576Z" style="fill-rule:nonzero;"/></g><g><path d="M289.357,19.148l-28.769,0l0,147.864l28.769,0l0,19.148l-38.297,0c-2.678,0 -4.935,-0.919 -6.772,-2.756c-1.837,-1.837 -2.756,-4.094 -2.756,-6.772l0,-167.012c0,-2.74 0.919,-5.028 2.756,-6.865c1.837,-1.837 4.094,-2.756 6.772,-2.756l38.297,0l0,19.148Z" style="fill:#000877;fill-rule:nonzero;"/><path d="M392.385,28.302l-70.336,133.946l-21.857,0l70.429,-133.946l21.764,0Z" style="fill:#000877;fill-rule:nonzero;"/><path d="M402.94,0l38.297,0c2.678,0 4.935,0.919 6.772,2.756c1.837,1.837 2.756,4.125 2.756,6.865l0,167.012c0,2.678 -0.919,4.935 -2.756,6.772c-1.837,1.837 -4.094,2.756 -6.772,2.756l-38.297,0l0,-19.148l28.769,0l0,-147.864l-28.769,0l0,-19.148Z" style="fill:#000877;fill-rule:nonzero;"/></g></svg>